<?xml version="1.0" encoding="UTF-8"?>
<svg width="320px" height="320px" viewBox="0 0 320 320" version="1.1" xmlns="http://www.w3.org/2000/svg" xmlns:xlink="http://www.w3.org/1999/xlink">
    <!-- Generator: Sketch 60.1 (88133) - https://sketch.com -->
    <title>9H_LOGO</title>
    <desc>Created with Sketch.</desc>
    <defs>
        <radialGradient cx="49.8645394%" cy="49.3678507%" fx="49.8645394%" fy="49.3678507%" r="48.4121011%" id="radialGradient-1">
            <stop stop-color="#E60012" offset="0%"></stop>
            <stop stop-color="#C7000B" offset="70%"></stop>
            <stop stop-color="#7D0000" offset="100%"></stop>
        </radialGradient>
        <radialGradient cx="4.79103615%" cy="110.793083%" fx="4.79103615%" fy="110.793083%" r="110.865955%" gradientTransform="translate(0.047910,1.107931),scale(1.000000,0.865012),translate(-0.047910,-1.107931)" id="radialGradient-2">
            <stop stop-color="#E60012" offset="0%"></stop>
            <stop stop-color="#C7000B" offset="70%"></stop>
            <stop stop-color="#7D0000" offset="100%"></stop>
        </radialGradient>
        <linearGradient x1="43.6432013%" y1="4.80992532%" x2="49.5354399%" y2="59.0052047%" id="linearGradient-3">
            <stop stop-color="#FFF100" offset="0%"></stop>
            <stop stop-color="#F6AB00" offset="100%"></stop>
        </linearGradient>
        <linearGradient x1="49.9749181%" y1="60.7338099%" x2="49.4346487%" y2="16.936427%" id="linearGradient-4">
            <stop stop-color="#FFF100" offset="0%"></stop>
            <stop stop-color="#F6AB00" offset="100%"></stop>
        </linearGradient>
        <linearGradient x1="50.2162638%" y1="11.8191604%" x2="49.8991428%" y2="86.4477933%" id="linearGradient-5">
            <stop stop-color="#FFF100" offset="0%"></stop>
            <stop stop-color="#F6AB00" offset="100%"></stop>
        </linearGradient>
        <linearGradient x1="1.05923886e-13%" y1="50%" x2="99.9917994%" y2="50%" id="linearGradient-6">
            <stop stop-color="#FFF100" offset="0%"></stop>
            <stop stop-color="#F6AB00" offset="100%"></stop>
        </linearGradient>
        <linearGradient x1="85.0806108%" y1="42.6913607%" x2="42.5658961%" y2="55.9945904%" id="linearGradient-7">
            <stop stop-color="#FFF100" offset="0%"></stop>
            <stop stop-color="#F6AB00" offset="100%"></stop>
        </linearGradient>
        <linearGradient x1="-2.42443994e-14%" y1="49.988403%" x2="100%" y2="49.988403%" id="linearGradient-8">
            <stop stop-color="#FFF100" offset="0%"></stop>
            <stop stop-color="#F6AB00" offset="100%"></stop>
        </linearGradient>
        <linearGradient x1="88.8455794%" y1="25.4671715%" x2="57.4306365%" y2="48.5464449%" id="linearGradient-9">
            <stop stop-color="#FFF100" offset="0%"></stop>
            <stop stop-color="#F6AB00" offset="100%"></stop>
        </linearGradient>
        <linearGradient x1="53.095259%" y1="66.6748637%" x2="47.7937454%" y2="38.7151411%" id="linearGradient-10">
            <stop stop-color="#FFF100" offset="0%"></stop>
            <stop stop-color="#F6AB00" offset="100%"></stop>
        </linearGradient>
        <linearGradient x1="51.1373772%" y1="111.813569%" x2="48.2294407%" y2="42.0105579%" id="linearGradient-11">
            <stop stop-color="#FFF100" offset="0%"></stop>
            <stop stop-color="#F6AB00" offset="100%"></stop>
        </linearGradient>
        <linearGradient x1="48.8889779%" y1="8.52467527%" x2="49.6587841%" y2="63.2599206%" id="linearGradient-12">
            <stop stop-color="#FFF100" offset="0%"></stop>
            <stop stop-color="#F6AB00" offset="100%"></stop>
        </linearGradient>
    </defs>
    <g id="页面-1" stroke="none" stroke-width="1" fill="none" fill-rule="evenodd">
        <g id="航司LOGO备份-3" transform="translate(-1167.000000, -6401.000000)">
            <g id="切图" transform="translate(109.000000, 80.000000)"></g>
            <g id="长安航空横版" transform="translate(1200.000000, 6401.000000)">
                <circle id="椭圆形" fill="url(#radialGradient-1)" fill-rule="nonzero" cx="126.613615" cy="193.048126" r="126.613615"></circle>
                <path d="M223.212714,49.8169502 C220.659099,108.359549 174.21759,155.792013 126.175308,175.592065 L125.927569,175.706406 L124.955671,176.106599 C123.621692,176.640191 122.30677,177.154725 120.972792,177.650203 C158.991179,173.838836 196.418804,156.058808 216.866788,126.044292 C237.067034,96.3346857 233.636804,64.4716567 223.212714,49.8169502 Z" id="路径" fill="url(#radialGradient-2)" fill-rule="nonzero"></path>
                <g id="编组" style="mix-blend-mode: multiply;" transform="translate(0.798005, 0.000000)" fill="#898989" fill-rule="nonzero">
                    <path d="M174.124688,221.290356 C152.85726,207.131127 123.242937,221.023561 114.229054,231.600104 L115.258123,232.629173 C130.503592,224.911155 145.005844,227.064577 153.867272,233.982209 C166.04459,243.510626 169.951241,269.370752 141.327874,288.427588 C121.813675,301.42435 102.070793,301.767373 86.6728701,300.890758 C68.3973648,299.747348 48.3876875,293.058399 34.2094019,280.385603 C46.2723788,295.116537 66.6060223,304.168534 92.8282279,306.569695 C130.141512,309.999926 156.573343,294.201809 166.46384,286.159824 C195.525515,262.548405 191.561693,232.915026 174.124688,221.290356 Z" id="路径"></path>
                    <path d="M121.203856,178.622101 C165.034578,163.738713 221.671493,114.743589 223.424722,50.8460193 C224.129825,25.9768489 213.572338,5.68131909 208.179253,0.726541854 C203.129192,93.1140805 161.94737,150.646667 120.117616,177.593032 L121.203856,178.622101 Z" id="路径"></path>
                    <path d="M110.093721,193.391149 C121.146686,168.159899 130.408308,146.606618 121.527822,132.256821 C117.694171,125.886331 111.173883,121.602572 103.804965,120.613094 C122.861801,122.518778 133.133435,117.849853 138.488406,113.466781 C142.852421,109.884096 148.969665,101.803997 146.644731,92.5042617 C144.782029,84.9099574 137.688762,79.7856972 129.893773,80.4031712 C123.204824,80.7271374 115.486805,85.0339822 114.514907,93.742956 C113.543008,102.45193 119.107604,105.539137 123.395392,105.767819 C125.776684,106.021302 128.151551,105.235011 129.911078,103.610551 C131.670605,101.986091 132.643673,99.6814468 132.580787,97.2875275 L131.532661,96.3156288 C131.532661,96.3156288 128.197715,100.393792 124.748427,99.5934045 C119.73648,98.4499944 118.859865,92.942569 121.051401,89.2645997 C123.345835,85.9086176 127.516804,84.3779869 131.437377,85.4532326 C135.096289,86.1964492 139.784271,89.2645997 139.784271,96.8873339 C139.784271,104.700636 135.229687,110.532028 126.939964,114.991328 C121.413481,117.983251 113.085644,119.393457 100.355678,119.850821 C96.034028,119.832554 91.7164709,120.119118 87.4351435,120.708378 L88.4642126,121.737447 C95.5724123,121.146686 104.281386,122.938028 108.05464,130.522649 C112.513939,139.555589 107.349537,153.867272 84.9768117,185.997097 C81.876728,190.396765 79.0018045,194.950847 76.363122,199.641791 C54.352477,202.48126 27.9015893,202.938624 0.231064131,201.547475 L0.231064131,201.547475 C23.9216595,205.660384 47.8846392,208.01082 71.9228794,208.579447 C65.1577028,224.491905 65.1577028,239.165668 78.2306919,250.980906 C87.7591097,259.556482 116.344363,267.026761 136.373097,244.654037 L135.344028,243.624967 C130.560762,249.037109 117.220977,251.533554 110.03655,247.855585 C97.0016749,241.204749 96.2584583,228.798749 104.033647,208.007742 C172.199948,203.853352 226.26419,178.946068 223.596233,112.723564 C203.872409,149.941564 168.045558,179.441545 110.093721,193.391149 Z" id="路径"></path>
                </g>
                <path d="M132.330666,96.3156288 C130.330996,98.4473771 127.334062,99.3296862 124.498306,98.6215059 C119.486359,97.4780958 118.609744,91.9706703 120.80128,88.2927011 C123.098387,84.9287598 127.279835,83.3970939 131.206313,84.481334 C134.846168,85.2245506 139.53415,88.2927011 139.53415,95.9154353 C139.53415,103.728738 134.979566,109.56013 126.689843,114.019429 C121.16336,116.992295 112.740239,118.917036 100.010273,119.3744 C121.182417,122.328209 132.559348,117.220977 138.238285,112.590166 C142.621357,109.007481 148.719544,100.927383 146.39461,91.6276473 C144.531908,84.033343 137.438641,78.9090828 129.643652,79.5265567 C122.954703,79.8505229 115.065173,84.1573678 114.074217,92.8663416 C113.083262,101.575315 118.857483,104.662523 123.145271,104.891205 C125.543603,105.1474 127.934899,104.348764 129.697944,102.702768 C131.460988,101.056772 132.42176,98.7258845 132.330666,96.3156288 L132.330666,96.3156288 Z" id="路径" fill="url(#linearGradient-3)" fill-rule="nonzero"></path>
                <path d="M134.998623,110.665426 C144.10779,103.328544 143.993449,92.2565229 138.714706,86.5394722 C136.193109,83.894781 132.709006,82.382463 129.055028,82.3465693 C125.40105,82.3106757 121.887911,83.7542584 119.314847,86.3489039 C113.597797,92.2184092 115.674992,102.108907 123.507351,102.623441 C127.582181,102.914538 131.287688,100.265461 132.330666,96.3156288 C130.330996,98.4473771 127.334062,99.3296862 124.498306,98.6215059 C119.486359,97.4780958 118.609744,91.9706703 120.80128,88.2927011 C123.098387,84.9287598 127.279835,83.3970939 131.206313,84.481334 C134.846168,85.2245506 139.53415,88.2927011 139.53415,95.9154353 C139.53415,103.728738 134.979566,109.56013 126.689843,114.019429 C121.16336,116.992295 112.740239,118.917036 100.010273,119.3744 C105.612982,119.221945 122.840362,120.460639 134.998623,110.665426 Z" id="路径" fill="url(#linearGradient-4)" fill-rule="nonzero"></path>
                <path d="M104.850709,119.450627 C103.707299,119.450627 101.782559,119.450627 100.010273,119.221945 C102.144638,119.221945 103.612015,119.107604 104.774482,119.107604 C112.397216,119.107604 125.298694,118.269103 134.903339,110.532028 C139.019501,107.389514 141.637412,102.671749 142.125879,97.5162095 C142.49954,93.5640961 141.223725,89.6332092 138.600365,86.6538132 C136.113379,84.0446373 132.676348,82.5529658 129.071947,82.5184799 C125.483324,82.4399192 122.026463,83.8710595 119.543529,86.4632449 C116.634211,89.3872983 115.643455,93.7126127 116.989913,97.6114937 C118.014801,100.414905 120.621078,102.330181 123.602635,102.470987 C125.556661,102.647652 127.508041,102.105602 129.091004,100.94644 C130.598379,99.7582467 131.746299,98.1749088 132.406893,96.3727993 C131.967826,98.209772 130.944727,99.8547549 129.491197,101.060781 C127.822271,102.384768 125.70334,103.006777 123.583578,102.794953 C120.46057,102.688606 117.718763,100.687011 116.665947,97.7448915 C115.303889,93.7431753 116.322293,89.3153287 119.29579,86.3107902 C121.855252,83.6674027 125.392882,82.1985618 129.071947,82.2516842 C132.806165,82.2536579 136.375459,83.7902456 138.943388,86.5013585 C141.626352,89.5494932 142.935929,93.5678284 142.564187,97.6114937 C142.100826,102.895769 139.429894,107.739429 135.208248,110.951279 C125.451148,118.574013 112.43533,119.450627 104.850709,119.450627 Z" id="路径" fill="#FFF462" fill-rule="nonzero"></path>
                <path d="M223.212714,49.8169502 C223.879704,24.928723 212.197864,2.8990211 208.958202,0.555030335 C203.889083,93.3237057 161.316113,149.522314 120.972792,177.593032 C164.82257,162.709644 221.440429,113.71452 223.212714,49.8169502 Z" id="路径" fill="url(#linearGradient-5)" fill-rule="nonzero"></path>
                <path d="M223.212714,49.8169502 C223.879704,24.928723 212.197864,2.8990211 208.958202,0.555030335 C208.958202,0.555030335 224.92783,29.8644434 211.492761,73.6379946 C196.933338,121.051401 158.648156,160.136971 120.972792,177.593032 C164.82257,162.709644 221.440429,113.71452 223.212714,49.8169502 Z" id="路径" fill="url(#linearGradient-6)" fill-rule="nonzero"></path>
                <path d="M120.972792,177.593032 L126.232479,174.829791 C144.534744,165.090041 160.967697,152.186269 174.770239,136.71612 C191.381799,118.555436 203.858411,97.0090619 211.340306,73.5617672 C216.811607,56.50383 218.118505,38.3836919 215.151673,20.7171623 C214.302811,15.8317498 213.027478,11.0301189 211.340306,6.36736517 C209.987271,2.67033908 209.053486,0.650314512 209.034429,0.535973499 C210.109372,2.29848989 210.978946,4.17830517 211.626158,6.13868314 C213.319022,10.8517732 214.594385,15.7045274 215.437526,20.640935 C218.412114,38.3640964 217.105317,56.541636 211.626158,73.6570514 C204.130357,97.1544907 191.627554,118.746695 174.979864,136.944802 C161.133391,152.423024 144.655236,165.326825 126.308706,175.058473 C124.574534,176.068486 122.745078,176.792645 120.972792,177.593032 Z" id="路径" fill="#FFF462" fill-rule="nonzero"></path>
                <path d="M0.971898612,201.509361 C124.17434,205.873376 194.341609,169.512934 224.375181,112.647337 C224.375181,210.447017 107.671121,216.335579 0.971898612,201.509361 Z" id="路径" fill="url(#linearGradient-7)" fill-rule="nonzero"></path>
                <path d="M224.375181,112.647337 C224.375181,112.647337 222.031191,160.784903 167.757323,185.063312 C110.072282,210.828153 24.1068969,203.929579 0.971898612,201.547475 C107.671121,216.335579 224.375181,210.447017 224.375181,112.647337 Z" id="路径" fill="url(#linearGradient-8)" fill-rule="nonzero"></path>
                <path d="M53.2066848,204.425057 C38.2661257,204.425057 25.2312502,203.796181 15.9124577,203.052965 C7.62273421,202.405032 1.01001228,201.528418 1.01001228,201.528418 L13.3778985,202.519373 C24.0306696,203.376931 40.7054007,204.310716 59.9337477,204.04392 C90.4246846,203.605613 133.93144,199.9467 167.681096,184.872744 C195.675587,172.371459 209.606134,153.390851 216.276026,139.66993 C219.335947,133.433869 221.626848,126.849126 223.098373,120.060446 C223.668706,117.629376 224.09505,115.166762 224.375181,112.685451 C224.363128,115.256478 224.03674,117.816386 223.403283,120.308185 C221.918847,127.087112 219.628444,133.664022 216.580936,139.898612 C209.834816,153.676704 195.923326,172.714482 167.83355,185.25388 C149.176908,193.600774 115.370082,203.68184 59.9337477,204.46317 L53.2066848,204.425057 Z" id="路径" fill="#FFF462" fill-rule="nonzero"></path>
                <path d="M115.027059,231.600104 C123.011873,220.928276 151.921093,205.625637 173.893624,220.261287 C191.330629,231.905014 195.29445,261.519336 166.27089,285.054528 C156.361335,293.115569 129.948561,308.894629 92.6162206,305.464399 C66.4130718,303.063237 46.1747125,294.144638 33.9973946,279.280307 C47.7754867,292.02933 67.7470503,297.841664 85.9844419,299.55678 C99.7434771,300.833588 122.745078,299.690178 141.249265,287.436632 C169.377154,268.799047 165.870696,242.386273 153.693378,232.876912 C144.774779,226.035508 130.1963,223.882086 115.027059,231.600104 Z" id="路径" fill="url(#linearGradient-9)" fill-rule="nonzero"></path>
                <path d="M153.216958,284.997357 C177.685934,266.474113 182.221461,241.166636 170.253769,227.560055 C157.676257,213.210258 128.176276,218.870138 114.988946,231.600104 C130.234414,223.97737 144.736666,226.035508 153.598094,232.95314 C165.775412,242.481557 169.28187,268.875275 141.153981,287.51286 C122.687907,299.766405 99.6863066,300.852645 85.8891577,299.633007 C67.6517661,297.917892 47.7754867,292.105557 33.9021104,279.356534 C60.486396,304.930807 119.810325,310.323892 153.216958,284.997357 Z" id="路径" fill="url(#linearGradient-10)" fill-rule="nonzero"></path>
                <path d="M98.2189303,301.653032 C95.817769,301.653032 93.4166077,301.653032 90.9963896,301.443406 C67.9947891,300.014144 46.7083039,291.686307 33.8258831,279.356534 L33.8258831,279.356534 C46.6320765,291.457625 67.9947891,299.671121 90.9963896,301.100383 C114.912718,302.586817 137.533182,296.660141 153.102617,284.86396 C166.442401,274.706666 174.94175,261.538393 176.256672,248.655972 C177.246979,241.0815 175.021739,233.438286 170.120371,227.579112 C165.622958,222.452823 158.686269,219.575241 150.034466,219.213161 C137.228551,218.75899 124.721883,223.147891 115.008002,231.50482 C116.850821,229.664435 118.882008,228.022878 121.068076,226.607213 C129.785648,221.312794 139.837987,218.627762 150.034466,218.870138 C158.781554,219.232218 165.813526,222.166971 170.36811,227.35043 C175.331324,233.283832 177.58424,241.023914 176.580638,248.694086 C175.284773,261.576506 166.785424,274.840064 153.312242,285.035471 C139.286411,295.783526 119.505416,301.653032 98.2189303,301.653032 Z" id="路径" fill="#FFF462" fill-rule="nonzero"></path>
                <path d="M88.2140916,120.613094 C98.0093051,117.964194 112.987978,117.811739 121.277701,131.227752 C130.806119,146.47322 119.753154,169.722559 107.937916,196.897607 C96.1226784,224.072654 94.8458704,239.146611 109.8436,246.807459 C117.618789,250.790338 130.977631,249.018052 136.180147,243.605911 C116.170469,265.978636 87.5471024,258.508356 78.0377415,249.93278 C58.9809059,232.781628 67.7661071,209.303607 84.7838612,184.872744 C107.099416,152.742919 112.263818,138.431235 107.861689,129.474523 C104.050322,121.851788 95.3222913,119.946105 88.2140916,120.613094 Z" id="路径" fill="url(#linearGradient-11)"></path>
                <path d="M115.751219,130.617933 C122.706964,142.509398 113.845535,161.52812 105.632039,177.593032 C96.6372129,195.239662 85.7938735,209.856255 85.1268843,227.998362 C84.0406447,256.888525 120.972792,260.128187 136.122976,243.605911 C130.92046,249.018052 117.561618,250.790338 109.786429,246.807459 C94.7886999,239.184725 96.0655079,223.939256 107.880746,196.897607 C119.695984,169.855957 130.748949,146.416049 121.220531,131.227752 C112.892694,117.887967 97.9521346,117.887967 88.1569211,120.613094 C88.2140916,120.613094 107.118472,115.906056 115.751219,130.617933 Z" id="路径" fill="url(#linearGradient-12)" fill-rule="nonzero"></path>
                <path d="M111.673056,253.72509 C107.516003,253.764449 103.391644,252.98749 99.5338519,251.43827 C89.7767521,247.436335 84.6314066,239.108497 85.0506569,227.998362 C85.5651915,213.877247 92.2731976,201.81427 99.3623404,189.027134 C101.420479,185.330108 103.554844,181.404399 105.574869,177.593032 C114.036104,161.032642 122.497339,142.395057 115.694048,130.789444 C110.20568,121.432538 100.44858,120.003275 94.1788812,120.174787 C92.2134465,120.221634 90.2529841,120.393492 88.3093758,120.689321 C90.2334796,120.217155 92.199535,119.93629 94.1788812,119.850821 C100.524807,119.698366 110.434362,121.127629 115.979901,130.617933 C122.878475,142.356943 114.379127,161.10887 105.879778,177.764544 C103.859754,181.728366 101.725388,185.55879 99.6672498,189.198645 C92.5971638,201.947668 85.9082145,213.972531 85.3746231,228.017419 C84.9744296,238.9751 90.0435478,247.188596 99.6672498,251.133361 C110.3036,255.102499 122.202816,253.682545 131.606506,247.321994 C133.281128,246.227559 134.828007,244.949147 136.21826,243.510626 C134.875086,244.986675 133.401764,246.338815 131.816131,247.550676 C125.869792,251.575778 118.853613,253.726514 111.673056,253.72509 Z" id="路径" fill="#FFF462" fill-rule="nonzero"></path>
            </g>
        </g>
    </g>
</svg>